<?xml version="1.0" standalone="no"?>
<!DOCTYPE svg PUBLIC "-//W3C//DTD SVG 20010904//EN"
 "http://www.w3.org/TR/2001/REC-SVG-20010904/DTD/svg10.dtd">
<svg version="1.0" xmlns="http://www.w3.org/2000/svg"
 width="928.000000pt" height="928.000000pt" viewBox="0 0 928.000000 928.000000"
 preserveAspectRatio="xMidYMid meet">
<metadata>
Created by potrace 1.14, written by Peter Selinger 2001-2017
</metadata>
<g transform="translate(0.000000,928.000000) scale(0.100000,-0.100000)"
fill="#000000" stroke="none">
<path d="M3691 7498 c-66 -19 -97 -55 -206 -240 -58 -99 -105 -184 -105 -189
0 -5 -4 -9 -10 -9 -5 0 -10 -5 -10 -11 0 -9 -35 -72 -103 -184 -34 -57 -364
-629 -394 -684 -14 -25 -32 -53 -39 -62 -8 -9 -11 -19 -7 -22 3 -4 2 -7 -4 -7
-6 0 -16 -12 -22 -27 -6 -16 -20 -41 -30 -58 -71 -109 -104 -185 -105 -238 0
-59 10 -83 101 -239 34 -59 73 -127 86 -150 56 -100 72 -128 124 -215 29 -51
54 -96 54 -100 0 -5 6 -15 13 -23 7 -8 24 -35 37 -60 13 -25 28 -48 32 -51 5
-3 8 -9 8 -13 -1 -3 5 -16 13 -29 43 -69 246 -430 246 -438 0 -5 5 -9 10 -9 6
0 10 -4 10 -9 0 -19 129 -233 149 -247 35 -25 81 -25 133 -1 26 12 48 25 48
29 0 5 4 8 9 8 24 0 163 95 176 121 16 30 12 93 -7 117 -15 18 -58 94 -65 115
-3 9 -9 17 -14 17 -5 0 -9 4 -9 9 0 6 -17 38 -37 73 -21 35 -38 65 -38 68 0 3
-8 16 -17 30 -13 21 -307 533 -458 800 -24 41 -49 85 -57 97 -7 13 -14 26 -14
30 -1 5 -10 19 -20 32 -17 21 -17 27 -6 45 17 26 120 207 167 292 19 35 41 69
48 76 6 6 12 15 12 19 0 6 59 109 90 159 6 8 22 38 37 65 15 28 32 57 38 67 5
9 53 90 105 180 52 89 100 172 107 183 7 11 15 27 19 35 4 8 10 17 13 20 3 3
19 30 35 60 16 30 32 57 35 60 4 3 12 17 18 31 l11 26 741 1 740 0 15 -22 c15
-19 178 -297 227 -386 11 -19 28 -48 38 -65 10 -16 29 -51 44 -77 14 -25 37
-64 51 -87 14 -22 26 -44 26 -48 0 -3 6 -14 14 -22 7 -9 27 -41 43 -71 17 -30
87 -154 157 -274 71 -121 130 -225 133 -231 3 -11 -128 -258 -147 -275 -3 -3
-14 -23 -25 -45 -11 -22 -23 -42 -26 -45 -3 -3 -8 -10 -10 -16 -2 -6 -87 -155
-189 -332 -102 -177 -189 -329 -195 -339 -5 -10 -45 -81 -89 -156 -71 -125
-78 -142 -73 -179 7 -50 26 -71 107 -116 36 -20 67 -40 68 -44 2 -4 8 -8 14
-8 5 0 23 -9 39 -21 33 -23 115 -33 137 -15 31 24 82 78 82 87 0 5 5 15 11 22
8 9 202 347 321 557 11 19 30 53 42 75 12 22 100 174 194 339 95 164 172 302
172 306 0 5 3 10 8 12 4 2 22 31 40 65 47 90 50 148 10 233 -17 36 -35 67 -40
68 -4 2 -8 8 -8 13 0 5 -18 39 -40 75 -22 36 -40 68 -40 70 0 3 -96 169 -130
224 -5 8 -22 38 -38 65 -16 28 -38 66 -49 85 -11 19 -49 85 -83 145 -35 61
-70 118 -78 128 -8 9 -11 17 -7 17 4 0 1 8 -7 18 -8 9 -30 44 -48 77 -18 33
-62 108 -97 166 -35 59 -63 109 -63 112 0 3 -12 25 -27 49 -40 62 -50 78 -73
123 -56 107 -125 174 -198 195 -49 13 -1853 12 -1901 -2z"/>
<path d="M4589 6215 c-2 -2 -19 -6 -38 -8 -41 -7 -147 -59 -181 -90 -96 -86
-141 -182 -145 -306 -11 -324 327 -536 619 -389 45 23 55 30 102 78 113 113
150 306 88 465 -35 92 -148 198 -245 230 -44 15 -191 30 -200 20z"/>
<path d="M1028 5985 c-32 -13 -38 -21 -83 -95 -53 -87 -61 -99 -83 -140 -10
-19 -65 -114 -122 -210 -56 -96 -110 -188 -120 -205 -9 -16 -151 -259 -315
-540 -224 -384 -299 -520 -302 -552 -5 -41 -2 -49 72 -175 6 -9 37 -63 70
-119 33 -56 67 -113 75 -128 9 -14 23 -37 32 -51 30 -46 69 -115 75 -132 3
-10 9 -18 14 -18 5 0 9 -4 9 -9 0 -5 34 -67 76 -138 42 -70 88 -148 102 -172
13 -25 64 -110 111 -190 48 -80 112 -188 142 -239 29 -51 63 -108 73 -125 11
-18 24 -41 30 -52 66 -116 113 -188 128 -196 13 -7 320 -11 904 -11 983 0 914
-5 949 68 15 32 22 85 15 119 -1 6 -1 15 0 20 3 13 1 185 -3 205 -5 25 -21 46
-50 65 -26 16 -74 18 -765 17 -820 0 -779 -3 -826 69 -14 21 -26 40 -26 43 0
2 -72 128 -160 280 -88 153 -160 279 -160 282 0 3 -5 10 -10 17 -6 7 -42 66
-79 132 -37 66 -82 144 -99 173 -18 29 -32 54 -32 56 0 2 -25 46 -55 97 -31
52 -53 99 -51 106 3 7 1 15 -4 18 -17 10 9 66 131 277 67 117 130 227 139 243
10 17 76 131 147 255 174 299 175 301 234 407 42 74 58 94 83 103 18 6 152 10
329 9 285 0 299 0 331 21 19 11 38 33 43 48 5 15 9 88 8 162 -1 155 -14 192
-69 205 -48 12 -882 12 -908 0z"/>
<path d="M7368 5958 c-19 -4 -43 -20 -58 -39 -27 -31 -27 -33 -26 -187 1 -113
5 -157 14 -160 6 -2 12 -9 12 -15 0 -7 15 -19 32 -26 26 -12 99 -15 353 -16
353 -2 335 -2 335 -14 0 -4 43 -81 95 -170 52 -89 95 -166 95 -171 0 -6 5 -10
10 -10 6 0 10 -4 10 -9 0 -4 48 -91 107 -192 58 -101 115 -200 126 -219 10
-19 57 -99 103 -177 46 -78 84 -145 84 -148 0 -3 5 -11 10 -18 6 -7 30 -45 54
-86 l43 -75 -50 -85 c-27 -47 -60 -104 -72 -126 -13 -22 -60 -102 -104 -179
-45 -76 -81 -142 -81 -147 0 -5 -4 -9 -10 -9 -5 0 -10 -5 -10 -10 0 -6 -15
-34 -33 -63 -18 -29 -38 -63 -45 -77 -6 -14 -16 -32 -22 -40 -11 -17 -201
-343 -238 -410 -14 -25 -39 -68 -57 -95 l-32 -50 -758 0 c-819 0 -797 1 -833
-53 -21 -32 -23 -298 -2 -337 32 -60 -18 -57 918 -56 472 0 864 2 872 3 29 6
127 58 143 75 16 19 162 263 204 343 27 51 46 83 53 90 7 7 39 67 59 108 8 17
19 32 23 32 4 0 8 4 8 9 0 4 53 100 118 212 65 112 169 292 232 399 62 107
124 215 138 239 14 25 39 68 56 95 26 44 30 61 31 121 0 68 -2 73 -62 178 -35
60 -63 113 -63 118 0 5 -4 9 -10 9 -5 0 -10 6 -10 14 0 7 -7 19 -15 26 -8 7
-15 21 -15 31 0 11 -3 19 -8 19 -4 0 -16 17 -27 38 -10 20 -32 56 -47 80 -15
24 -28 45 -28 47 0 2 -36 65 -80 141 -44 75 -80 140 -80 145 0 5 -5 9 -12 9
-6 0 -8 3 -5 7 4 3 1 13 -6 22 -8 9 -69 113 -137 231 -68 118 -133 231 -145
250 -13 19 -29 47 -36 62 -28 56 -124 213 -143 236 -26 30 -96 71 -133 79 -40
8 -805 9 -845 1z"/>
<path d="M4100 2701 c-132 -93 -132 -124 0 -331 50 -80 97 -154 103 -164 7
-11 16 -25 20 -30 4 -6 53 -83 109 -171 55 -88 110 -171 122 -183 47 -52 130
-66 195 -32 43 22 77 70 302 428 35 56 81 128 102 160 20 31 40 65 43 75 4 9
10 17 14 17 4 0 15 18 24 40 27 67 6 131 -54 166 -16 10 -30 22 -30 26 0 4 -5
8 -11 8 -6 0 -25 10 -42 23 -40 28 -75 32 -119 14 -27 -11 -48 -36 -93 -108
-31 -52 -65 -105 -74 -119 -10 -14 -32 -50 -49 -80 -45 -76 -54 -91 -73 -117
-19 -25 0 -51 -208 283 -84 137 -93 144 -164 149 -32 2 -50 -6 -117 -54z"/>
</g>
</svg>
